<svg xmlns="http://www.w3.org/2000/svg" xmlns:xlink="http://www.w3.org/1999/xlink" id="Layer_1" x="0px" y="0px" width="536.658px" height="150.348px" viewBox="0 0 536.658 150.348" xml:space="preserve"><g>	<path fill="#FFFFFF" d="M116.908,33.171c0,5.738-1.286,11.148-3.855,16.228c-2.572,5.082-6.127,9.624-10.669,13.627   c-4.544,4.006-9.862,7.382-15.958,10.131c-6.097,2.751-12.731,4.603-19.903,5.559c1.793,5.379,3.973,10.91,6.544,16.586   c2.569,5.679,5.348,11.147,8.338,16.406c2.986,5.262,6.096,10.103,9.324,14.523c3.228,4.424,6.394,8.069,9.503,10.938   c-0.6,1.193-1.465,2.39-2.6,3.586c-1.138,1.193-2.452,2.3-3.945,3.317c-1.496,1.014-3.048,1.852-4.662,2.51   c-1.613,0.655-3.138,0.986-4.572,0.986c-2.63,0-5.141-1.255-7.531-3.766c-2.393-2.51-4.813-6.485-7.262-11.924   c-2.452-5.438-5.021-12.49-7.71-21.158c-2.689-8.666-5.648-19.096-8.875-31.289c-1.317,0-2.631,0-3.945,0   c-1.317,0-2.331-0.118-3.048-0.359c-0.838-0.476-1.734-1.314-2.69-2.51c-3.228,6.934-6.096,13.448-8.606,19.544   c-2.51,6.097-4.752,11.985-6.724,17.662c-1.972,5.679-3.707,11.179-5.2,16.497c-1.496,5.317-2.779,10.728-3.855,16.227   c-4.065-0.958-7.592-2.689-10.579-5.199c-2.99-2.511-5.8-6.038-8.428-10.579c0.477-1.076,0.986-2.121,1.524-3.138   c0.538-1.015,1.224-2.449,2.062-4.304c0.834-1.852,1.882-4.214,3.138-7.083c1.255-2.869,2.928-6.693,5.021-11.476   c2.09-4.78,4.601-10.638,7.531-17.572c2.928-6.931,6.483-15.358,10.669-25.282c1.911-4.421,3.555-8.307,4.931-11.655   c1.373-3.345,2.6-6.544,3.676-9.593c1.076-3.048,2.062-6.097,2.958-9.145c0.897-3.048,1.821-6.545,2.779-10.49   c-5.5,1.914-10.61,4.035-15.331,6.366c-4.724,2.331-8.638,4.813-11.745,7.441c-1.076-0.717-2.182-1.793-3.317-3.228   c-1.138-1.434-2.183-3.017-3.138-4.751c-0.958-1.731-1.793-3.497-2.51-5.29s-1.137-3.407-1.255-4.841   c3.586-2.39,7.979-4.6,13.179-6.634c5.2-2.031,10.728-3.793,16.586-5.29c5.855-1.493,11.834-2.659,17.931-3.497   C60.785,0.42,66.461,0,71.723,0c14.344,0,25.461,2.958,33.351,8.875C112.963,14.792,116.908,22.892,116.908,33.171z M73.157,18.11   c-0.838,1.076-2.152,3.228-3.945,6.455s-3.855,7.083-6.186,11.565c-2.331,4.483-4.783,9.355-7.352,14.614   c-2.572,5.261-5.051,10.461-7.441,15.6c8.965,0,17.213-0.835,24.744-2.51c7.531-1.673,14.045-4.035,19.544-7.083   c5.497-3.048,9.772-6.634,12.82-10.759c3.048-4.124,4.572-8.696,4.572-13.717c0-5.976-2.151-10.548-6.455-13.717   c-4.304-3.166-10.938-4.751-19.903-4.751c-2.034,0-4.065,0.089-6.096,0.269c-2.034,0.179-4.186,0.389-6.455,0.627L73.157,18.11z"></path>	<path fill="#FFFFFF" d="M171.238,57.736c-0.479,7.414-1.793,13.779-3.945,19.096c-2.152,5.32-5.231,9.982-9.234,13.986   c-4.006,4.006-8.875,7.621-14.613,10.848s-12.434,6.337-20.083,9.324c0,0.717-0.031,1.465-0.089,2.242   c-0.062,0.779-0.09,1.585-0.09,2.42c0,1.555,0.118,3.169,0.358,4.841c0.238,1.675,0.656,3.228,1.255,4.662   c0.597,1.435,1.435,2.6,2.51,3.496s2.449,1.345,4.124,1.345c3.228,0,6.394-0.717,9.503-2.151c3.107-1.435,6.065-3.196,8.875-5.29   c2.807-2.09,5.438-4.362,7.89-6.813c2.448-2.449,4.631-4.69,6.544-6.724c1.193,1.076,2.21,2.093,3.048,3.048   c-5.379,7.172-11.269,13.12-17.662,17.84c-6.396,4.722-12.462,7.738-18.2,9.056c-8.248-0.958-14.675-3.976-19.275-9.056   c-4.603-5.079-6.903-11.206-6.903-18.378c0-4.9,0.687-9.89,2.062-14.972c1.373-5.079,3.287-9.979,5.738-14.703   c2.449-4.721,5.317-9.172,8.607-13.358c3.286-4.183,6.813-7.828,10.579-10.938c3.765-3.107,7.648-5.559,11.655-7.352   c4.003-1.793,7.979-2.689,11.924-2.689C161.314,48.233,166.456,51.64,171.238,57.736z M158.866,63.654   c-3.228,0.479-6.576,1.793-10.042,3.944c-3.468,2.152-6.724,5.021-9.772,8.607s-5.828,7.772-8.338,12.551   c-2.51,4.783-4.482,9.924-5.917,15.42c9.562-4.78,17.51-10.668,23.848-17.662C154.98,79.522,158.387,71.902,158.866,63.654z"></path>	<path fill="#FFFFFF" d="M237.759,60.336c-0.121,2.272-0.51,4.634-1.166,7.083c-0.659,2.452-1.465,4.662-2.421,6.634   c-0.958,1.973-1.972,3.617-3.048,4.931c-1.076,1.317-2.093,1.972-3.048,1.972c-1.317-0.118-2.093-1.014-2.331-2.689   c0-0.359,0.148-0.925,0.448-1.704c0.297-0.776,0.627-1.642,0.986-2.6c0.358-0.956,0.687-1.911,0.986-2.869   c0.297-0.955,0.448-1.793,0.448-2.51c0-1.672-0.39-3.076-1.166-4.214c-0.779-1.134-1.824-1.703-3.138-1.703   c-4.782,0-8.427,2.975-10.938,8.923c-2.51,5.948-3.766,14.692-3.766,26.232c0,1.19,0.059,1.905,0.18,2.14c2.51,0,4.751,0,6.724,0   c1.973,0,3.914,0,5.828,0c0.118,0.238,0.179,0.715,0.179,1.426c0,1.073-0.241,1.846-0.717,2.32   c-2.751,0.597-4.931,1.104-6.544,1.519c-1.614,0.417-2.841,0.804-3.676,1.16c-0.838,0.359-1.345,0.745-1.524,1.16   c-0.179,0.417-0.269,0.983-0.269,1.695c0,0.953,0.028,1.902,0.089,2.855c0.059,0.953,0.09,2.14,0.09,3.566   c0,9.993-2.721,18.031-8.159,24.119c-5.44,6.086-13,9.607-22.682,10.565c-1.675-0.12-3.407-0.6-5.2-1.435   c-1.793-0.838-3.497-1.913-5.11-3.228c-1.614-1.316-3.02-2.779-4.214-4.393c-1.196-1.614-2.034-3.259-2.51-4.932   c0-4.577,0.956-8.942,2.869-13.1c1.911-4.155,4.511-7.828,7.8-11.022c3.286-3.194,7.172-5.782,11.655-7.771   c4.483-1.986,9.352-2.981,14.613-2.981c0-3-0.299-5.942-0.896-8.823c-0.599-2.88-1.227-5.673-1.882-8.374   c-0.659-2.701-1.286-5.343-1.883-7.926c-0.6-2.581-0.896-5.133-0.896-7.654c0-3.239,0.655-6.449,1.972-9.632   c1.314-3.183,3.048-6.125,5.2-8.825c2.152-2.701,4.662-5.01,7.531-6.932c2.869-1.922,5.855-3.241,8.965-3.964   c1.314,0.359,3.076,1.407,5.29,3.138c2.21,1.734,4.393,3.676,6.544,5.827c2.152,2.152,4.063,4.334,5.738,6.545   C236.384,57.081,237.4,58.902,237.759,60.336z M178.588,142.1c2.869-1.196,5.586-2.931,8.158-5.2   c2.569-2.271,4.811-4.841,6.724-7.71c1.911-2.869,3.435-5.917,4.572-9.145c1.135-3.228,1.703-6.394,1.703-9.503   c-2.393,0.359-5.021,1.465-7.889,3.317c-2.869,1.854-5.559,4.065-8.069,6.634c-2.51,2.572-4.603,5.23-6.276,7.979   c-1.675,2.751-2.51,5.138-2.51,7.172C175.002,138.273,176.195,140.424,178.588,142.1z"></path>	<path fill="#FFFFFF" d="M244.93,63.295c-0.6-0.717-1.137-2.241-1.614-4.572c-0.479-2.331-0.717-4.332-0.717-6.007   c3.107,0.479,6.097,0.717,8.965,0.717c2.869,0,5.497,0,7.89,0c1.793-3.544,3.734-7.06,5.828-10.548   c2.09-3.485,4.124-6.676,6.096-9.573c1.972-2.894,3.824-5.345,5.559-7.357c1.731-2.009,3.076-3.309,4.034-3.9   c1.193,0,2.718,0.21,4.572,0.627c1.852,0.42,3.735,0.958,5.648,1.614c1.911,0.658,3.645,1.345,5.2,2.062   c1.552,0.717,2.628,1.435,3.227,2.152c-3.586,4.51-6.665,8.696-9.234,12.554c-2.572,3.86-5.351,8.282-8.337,13.266   c2.39,0,4.81,0,7.262,0c2.449,0,4.931-0.179,7.441-0.538c0.597,0.599,1.075,1.345,1.435,2.241c0.358,0.896,0.537,1.824,0.537,2.779   c-5.858,2.272-12.971,3.407-21.337,3.407c-2.989,5.754-5.648,11.476-7.979,17.168c-2.331,5.693-4.304,11.176-5.917,16.449   c-1.614,5.272-2.869,10.248-3.765,14.921s-1.345,8.867-1.345,12.583c0,5.272,1.972,8.209,5.917,8.809   c3.586-0.477,6.993-1.373,10.22-2.69c3.228-1.313,6.097-2.986,8.607-5.02c0.717,1.076,1.135,1.972,1.255,2.69   c-0.717,1.069-1.944,2.316-3.676,3.74c-1.734,1.423-3.617,2.818-5.648,4.186c-2.034,1.361-4.006,2.519-5.917,3.471   c-1.914,0.947-3.348,1.482-4.304,1.603c-2.989,0-5.979-0.6-8.965-1.793c-2.99-1.199-5.71-2.695-8.159-4.488   c-2.452-1.799-4.455-3.802-6.007-6.015c-1.555-2.214-2.331-4.399-2.331-6.553c0-2.872,0.387-6.492,1.166-10.859   c0.776-4.368,1.883-9.125,3.317-14.271c1.435-5.147,3.107-10.532,5.021-16.157c1.911-5.626,4.003-11.19,6.276-16.695H244.93z"></path>	<path fill="#FFFFFF" d="M294.058,119.956c0-1.076,0.09-2.42,0.269-4.034c0.18-1.614,0.507-3.766,0.986-6.455   c0.476-2.689,1.104-5.945,1.883-9.772c0.776-3.825,1.762-8.428,2.958-13.807c0.238-1.194,0.776-3.107,1.614-5.738   c0.835-2.628,1.941-5.407,3.317-8.338c1.372-2.928,3.048-5.766,5.021-8.517c1.972-2.749,4.331-4.78,7.082-6.096   c2.031,0.479,4.721,1.703,8.069,3.676c3.345,1.972,6.214,4.692,8.606,8.158c-2.751,3.11-5.052,6.217-6.903,9.324   c-1.854,3.109-3.527,6.337-5.021,9.682c-1.496,3.348-2.869,6.814-4.124,10.4s-2.661,7.352-4.214,11.296   c-1.316,3.348-2.51,6.786-3.586,10.31c-1.076,3.527-1.676,6.606-1.793,9.234c0,2.151-0.031,3.676-0.09,4.572   c-0.062,0.896-0.39,1.345-0.986,1.345c-0.479,0-1.435-0.3-2.869-0.896c-1.434-0.6-2.899-1.524-4.393-2.779   c-1.496-1.255-2.841-2.838-4.034-4.752C294.655,124.859,294.058,122.586,294.058,119.956z"></path>	<path fill="#C19977" d="M328.305,42.137c0-0.717,0.18-1.793,0.538-3.228c-0.6-0.597-1.106-1.493-1.524-2.689   c-0.42-1.193-0.627-2.27-0.627-3.228c0-1.076,0.148-2.538,0.448-4.393c0.297-1.852,0.687-3.855,1.165-6.007   c0.477-2.151,1.076-4.393,1.793-6.724c0.718-2.331,1.435-4.452,2.152-6.366c1.434,0,3.196,0.39,5.289,1.166   c2.09,0.779,4.214,1.793,6.365,3.048c2.151,1.255,4.124,2.631,5.917,4.124c1.793,1.496,3.166,2.9,4.124,4.214   c-1.316,1.317-3.048,3.138-5.199,5.469c-2.152,2.331-4.245,4.782-6.276,7.352c-2.034,2.572-3.886,4.993-5.559,7.262   c-1.675,2.272-2.751,3.886-3.228,4.841c-1.434-0.238-2.689-0.866-3.765-1.883C328.843,44.081,328.305,43.095,328.305,42.137z"></path>	<path fill="#FFFFFF" d="M436.246,77.012c-1.913,0-4.244,1.168-6.992,3.502c-2.752,2.336-5.71,5.329-8.876,8.979   c-3.169,3.653-6.455,7.693-9.862,12.123c-3.406,4.429-6.695,8.828-9.861,13.198c-3.169,4.371-6.127,8.47-8.876,12.299   c-2.751,3.833-5.082,6.884-6.993,9.159c-2.63-1.076-4.902-2.662-6.813-4.752c-1.913-2.09-3.289-4.69-4.124-7.8   c0.597-3.698,1.435-7.548,2.511-11.546c1.075-3.995,2.479-8.142,4.214-12.439c1.731-4.295,3.883-8.8,6.455-13.515   c2.568-4.712,5.707-9.697,9.413-14.947c-1.793,0-4.244,1.228-7.352,3.682c-3.109,2.454-6.455,5.628-10.041,9.517   s-7.293,8.259-11.117,13.106c-3.827,4.847-7.413,9.606-10.758,14.274c-4.424,6.225-8.1,11.671-11.027,16.339   c-2.931,4.667-5.052,7.419-6.365,8.259c-3.11-2.271-5.262-4.721-6.455-7.352c-1.196-2.628-2.094-5.558-2.69-8.786   c0.118-2.869,0.566-6.455,1.345-10.758c0.776-4.304,1.883-8.725,3.317-13.269c2.749-8.724,6.304-17.393,10.669-25.999   c4.362-8.607,8.576-16.496,12.642-23.668c3.345,0.717,6.365,1.854,9.055,3.407c2.689,1.555,5.527,3.827,8.517,6.813   c-1.196,3.707-3.048,7.621-5.559,11.745c-2.51,4.124-5.141,8.458-7.889,13c-2.752,4.544-5.262,9.207-7.531,13.986   c-2.272,4.782-3.766,9.624-4.482,14.523c3.345-4.779,7.32-10.279,11.924-16.496c4.6-6.214,9.323-12.072,14.165-17.572   c4.841-5.497,9.651-10.159,14.434-13.986c4.78-3.825,9.083-5.738,12.91-5.738c1.435,0,2.987,0.241,4.662,0.717   c1.673,0.479,3.228,1.076,4.662,1.793s2.628,1.406,3.586,2.062c0.955,0.658,1.493,1.166,1.614,1.524   c-0.6,2.393-2.004,5.648-4.214,9.772c-2.214,4.124-4.572,8.458-7.083,13c-2.51,4.544-4.841,8.937-6.992,13.179   c-2.152,4.245-3.407,7.621-3.766,10.131c5.855-8.007,11.354-15.269,16.496-21.786c5.138-6.514,9.979-12.103,14.523-16.765   c4.542-4.662,8.755-8.248,12.642-10.758c3.883-2.51,7.559-3.766,11.027-3.766c2.39,0,4.631,0.628,6.724,1.883   c2.09,1.255,3.556,3.079,4.393,5.469c-1.075,3.586-2.841,7.89-5.289,12.91c-2.451,5.021-4.931,10.31-7.441,15.869   c-2.51,5.559-4.752,11.027-6.724,16.407c-1.973,5.379-2.959,10.22-2.959,14.523c0,2.51,0.358,4.155,1.076,4.931   c0.717,0.779,1.731,1.165,3.048,1.165c1.435,0,2.779-0.269,4.034-0.807c1.256-0.538,2.18-0.807,2.779-0.807   c0.718,0.479,1.135,1.076,1.256,1.793c0.117,0.717,0.179,1.376,0.179,1.973c-2.393,1.91-4.841,3.496-7.352,4.751   c-2.51,1.256-5.32,1.883-8.427,1.883c-2.869,0-5.231-0.479-7.083-1.432c-1.854-0.955-3.379-2.27-4.572-3.938   c-1.196-1.67-2.034-3.581-2.511-5.729c-0.479-2.146-0.717-4.475-0.717-6.982c0-4.057,0.538-8.085,1.614-12.086   c1.075-3.998,2.358-7.816,3.854-11.459c1.493-3.639,3.076-7.041,4.752-10.204C433.616,82.354,435.049,79.52,436.246,77.012z"></path>	<path fill="#FFFFFF" d="M487.348,138.245c-6.813-0.717-12.255-3.706-16.316-8.965c-4.065-5.259-6.097-11.952-6.097-20.083   c0-4.779,0.717-9.741,2.151-14.882c1.435-5.138,3.466-10.131,6.097-14.972c2.628-4.841,5.737-9.414,9.324-13.717   c3.586-4.303,7.469-8.007,11.654-11.117c6.573-4.9,12.73-7.352,18.469-7.352c3.824,2.034,7.59,6.276,11.296,12.731   c0.597,0,1.135-0.028,1.614-0.09c0.477-0.059,1.014-0.089,1.613-0.089c6.335,0,9.504,5.62,9.504,16.854   c0,7.531-1.228,14.675-3.676,21.427c-2.452,6.755-5.858,12.882-10.221,18.379c-4.365,5.5-9.564,10.131-15.6,13.896   C501.124,134.032,494.52,136.69,487.348,138.245z M496.493,81.764c-2.034,2.751-3.944,5.738-5.737,8.965s-3.349,6.486-4.662,9.772   c-1.317,3.289-2.331,6.455-3.049,9.503c-0.717,3.048-1.075,5.769-1.075,8.158c0,2.869,0.476,5.62,1.435,8.248   c0.955,2.631,2.031,4.124,3.228,4.482c5.379-1.193,10.31-3.435,14.792-6.724c4.483-3.286,8.366-7.379,11.655-12.283   c3.286-4.9,5.855-10.458,7.71-16.675c1.853-6.214,2.779-12.848,2.779-19.903c0-3.107-0.179-5.559-0.538-7.352   c-0.358-1.793-0.958-3.345-1.793-4.662c-5.262,1.555-9.951,4.065-14.075,7.531C503.038,74.294,499.479,77.939,496.493,81.764z"></path></g></svg>